# xmcd CD database file
#
# Track frame offsets:
#	150
#	13869
#	28645
#	39124
#	53506
#	64536
#	84238
#	98504
#	113766
#	125828
#	136938
#	149326
#
# Disc length: 2180 seconds
#
# Revision: 0
# Processed by: cddbd v1.5.2PL0 Copyright (c) Steve Scherf et al.
# Submitted via: CDex 1.51
#
DISCID=9108820c
DTITLE=Various Artist - 100% Country CD 3
DYEAR=2006
DGENRE=Country
TTITLE0=Sølvgrå Cadillac - Ottar Big Hand Johansen
TTITLE1=I Can't stop loving you - Don Gibson
TTITLE2=Rollin' in my sweet baby's arms - Buck Owens
TTITLE3=Good year for the roses - George Jones
TTITLE4=Jesus was a capricorn - Kris Kristofferson
TTITLE5=Crazy - Timi Yuro
TTITLE6=Between the two of them - Heidi Hauge
TTITLE7=For the good times - Kenny Rogers
TTITLE8=The end of the world - Skeeter Davis
TTITLE9=Here you come again - Billie Jo Spears
TTITLE10=Wasted days and wasted nights - Freddy Fender
TTITLE11=If I said you have a beautiful body - The Bellamy Brothers
EXTD=YEAR: 2006
EXTT0=
EXTT1=
EXTT2=
EXTT3=
EXTT4=
EXTT5=
EXTT6=
EXTT7=
EXTT8=
EXTT9=
EXTT10=
EXTT11=
PLAYORDER=
